<svg xmlns="http://www.w3.org/2000/svg" viewBox="0 0 6 7">
  <defs>
    <style>
      .cls-1 {
        fill: #5e5e5e;
        opacity: 0;
      }
    </style>
  </defs>
  <path id="lock" class="cls-1" d="M9.391,3.229h-.3V2.134A2.279,2.279,0,0,0,6.692,0a2.279,2.279,0,0,0-2.4,2.134v1.1h-.3a.28.28,0,0,0-.3.263V6.728a.287.287,0,0,0,.3.272h5.4a.289.289,0,0,0,.3-.272V3.493a.283.283,0,0,0-.3-.264Zm-4.5-1.095a1.711,1.711,0,0,1,1.8-1.6,1.711,1.711,0,0,1,1.8,1.6v1.1h-3.6v-1.1Z" transform="translate(-3.692)"/>
</svg>
