<svg xmlns="http://www.w3.org/2000/svg" viewBox="0 0 17 17"><defs><style>.a{fill:#fff;}.a,.c{stroke:#d9d9d9;}.b{fill:#5e5e5e;}.c,.e{fill:none;}.d{stroke:none;}</style></defs><g transform="translate(-206 -60)"><g class="a" transform="translate(206 60)"><rect class="d" width="5" height="5"/><rect class="e" x="0.5" y="0.5" width="4" height="4"/></g><rect class="b" width="5" height="5" transform="translate(206 60)"/><g class="c" transform="translate(212 60)"><rect class="d" width="5" height="5"/><rect class="e" x="0.5" y="0.5" width="4" height="4"/></g><g class="c" transform="translate(218 60)"><rect class="d" width="5" height="5"/><rect class="e" x="0.5" y="0.5" width="4" height="4"/></g><g class="c" transform="translate(206 66)"><rect class="d" width="5" height="5"/><rect class="e" x="0.5" y="0.5" width="4" height="4"/></g><g class="c" transform="translate(212 66)"><rect class="d" width="5" height="5"/><rect class="e" x="0.5" y="0.5" width="4" height="4"/></g><g class="c" transform="translate(218 66)"><rect class="d" width="5" height="5"/><rect class="e" x="0.5" y="0.5" width="4" height="4"/></g><g class="c" transform="translate(206 72)"><rect class="d" width="5" height="5"/><rect class="e" x="0.5" y="0.5" width="4" height="4"/></g><g class="c" transform="translate(212 72)"><rect class="d" width="5" height="5"/><rect class="e" x="0.5" y="0.5" width="4" height="4"/></g><g class="c" transform="translate(218 72)"><rect class="d" width="5" height="5"/><rect class="e" x="0.5" y="0.5" width="4" height="4"/></g></g></svg>